<svg viewBox="0 0 50 50" xmlns="http://www.w3.org/2000/svg"><path d="m18.90625 1.96875c-.042969.007813-.085937.019531-.125.03125-.375.066406-.675781.339844-.78125.703125-.105469.367188.003906.757813.28125 1.015625.730469.722656.769531 1.035156.71875 1.34375s-.347656.773438-.78125 1.34375c-.433594.570313-1.023437 1.242188-1.1875 2.21875-.164062.976563.246094 2.097656 1.25 3.09375.398438.398438 1.039063.398438 1.4375 0 .398438-.398437.398438-1.039062 0-1.4375-.726562-.722656-.769531-1.035156-.71875-1.34375s.378906-.773437.8125-1.34375c.433594-.570312.992188-1.242187 1.15625-2.21875.164063-.976562-.246094-2.097656-1.25-3.09375-.207031-.222656-.507812-.335937-.8125-.3125zm6 0c-.042969.007813-.085937.019531-.125.03125-.375.066406-.675781.339844-.78125.703125-.105469.367188.003906.757813.28125 1.015625.730469.722656.769531 1.035156.71875 1.34375s-.347656.773438-.78125 1.34375c-.433594.570313-1.023437 1.242188-1.1875 2.21875-.164062.976563.246094 2.097656 1.25 3.09375.398438.398438 1.039063.398438 1.4375 0 .398438-.398437.398438-1.039062 0-1.4375-.726562-.722656-.769531-1.035156-.71875-1.34375s.378906-.773437.8125-1.34375c.433594-.570312.992188-1.242187 1.15625-2.21875.164063-.976562-.246094-2.097656-1.25-3.09375-.207031-.222656-.507812-.335937-.8125-.3125zm6 0c-.042969.007813-.085937.019531-.125.03125-.375.066406-.675781.339844-.78125.703125-.105469.367188.003906.757813.28125 1.015625.730469.722656.769531 1.035156.71875 1.34375s-.347656.773438-.78125 1.34375c-.433594.570313-1.023437 1.242188-1.1875 2.21875-.164062.976563.246094 2.097656 1.25 3.09375.398438.398438 1.039063.398438 1.4375 0 .398438-.398437.398438-1.039062 0-1.4375-.726562-.722656-.769531-1.035156-.71875-1.34375s.378906-.773437.8125-1.34375c.433594-.570312.992188-1.242187 1.15625-2.21875.164063-.976562-.246094-2.097656-1.25-3.09375-.207031-.222656-.507812-.335937-.8125-.3125zm-23.90625 12.03125v1c0 6.566406 3.550781 12.292969 8.8125 15.4375l-4.78125 16.28125c-.15625.535156.152344 1.09375.6875 1.25s1.09375-.152344 1.25-.6875l2.4375-8.28125h19.125l.46875 1.5625c-1.183594.695313-2 1.972656-2 3.4375 0 2.199219 1.800781 4 4 4s4-1.800781 4-4-1.800781-4-4-4c-.03125 0-.0625 0-.09375 0l-2.71875-9.53125c5.269531-3.140625 8.8125-8.898437 8.8125-15.46875v-1zm2.09375 2h31.8125c-.355469 5.640625-3.605469 10.5-8.28125 13.0625-.007812.003906-.023437-.003906-.03125 0-.066406.035156-.128906.078125-.1875.125-.019531.011719-.042969.019531-.0625.03125-2.195312 1.144531-4.6875 1.78125-7.34375 1.78125-2.621094 0-5.074219-.632812-7.25-1.75-.121094-.121094-.273437-.207031-.4375-.25-4.636719-2.574219-7.867187-7.390625-8.21875-13zm8.53125 15.40625c2.253906 1.019531 4.742188 1.59375 7.375 1.59375 2.621094 0 5.097656-.582031 7.34375-1.59375l1.625 5.59375h-18zm19.1875 10.59375c.0625-.003906.125 0 .1875 0 1.117188 0 2 .882813 2 2 0 1.117188-.882812 2-2 2-1.117187 0-2-.882812-2-2 0-.8125.472656-1.496094 1.15625-1.8125.21875.019531.441406-.035156.625-.15625.011719 0 .019531-.03125.03125-.03125z" fill="#d59567"/></svg>