<svg viewBox="0 0 50 50" xmlns="http://www.w3.org/2000/svg"><path d="m42.46875 2.007813c-1.21875 0-2.4375.460937-3.359375 1.382812l-1.816406 1.816406c-.351563.351563-.390625.910157-.089844 1.308594l-2.125 2.125c-4.332031 4.332031-7.945312 5.644531-11.574219 6.855469-3.625 1.210937-7.328125 2.316406-11.132812 6.125l-9.175781 9.171875c-1.585938 1.585937-1.585938 4.1875 0 5.777344l5.117187 5.117187 5.117188 5.113281c1.589843 1.589844 4.191406 1.589844 5.777343 0l9.171875-9.171875c3.808594-3.804687 4.914063-7.507812 6.121094-11.132812 1.210938-3.628906 2.523438-7.242188 6.859375-11.574219l2.125-2.125c.398438.300781.957031.261719 1.308594-.089844l1.816406-1.816406c1.847656-1.847656 1.847656-4.871094 0-6.71875l-.78125-.78125c-.925781-.921875-2.140625-1.386719-3.359375-1.382812zm0 1.984375c.703125.003906 1.40625.273437 1.949219.8125l.777344.78125c1.082031 1.082031 1.082031 2.808593 0 3.890625l-1.101563 1.101562-2.335937-2.335937c-.027344-.027344-.058594-.054688-.089844-.078125l-2.25-2.25 1.101562-1.109375c.542969-.539063 1.246094-.8125 1.949219-.8125zm-17.46875.007812c-.550781 0-1 .449219-1 1s.449219 1 1 1 1-.449219 1-1-.449219-1-1-1zm6 3c-.550781 0-1 .449219-1 1s.449219 1 1 1 1-.449219 1-1-.449219-1-1-1zm7.609375.9375 3.453125 3.453125-2.121094 2.117188c-1.5 1.503906-2.648437 2.945312-3.59375 4.347656l-4.203125-4.203125c1.402344-.945313 2.84375-2.09375 4.347657-3.59375zm-8.207031 6.796875 4.863281 4.863281c-.855469 1.515625-1.480469 2.972657-1.996094 4.371094l-5.425781-1.8125-1.8125-5.425781c1.398438-.515625 2.855469-1.140625 4.371094-1.996094zm-6.257813 2.65625 1.960938 5.875c.097656.296875.332031.53125.628906.628906l5.875 1.960938c-.003906 0-.003906.003906-.003906.003906-1.222656 3.671875-2.144531 6.863281-5.636719 10.359375l-9.171875 9.171875c-.824219.820313-2.128906.820313-2.953125 0l-10.234375-10.234375c-.820312-.824219-.820312-2.128906 0-2.953125l9.171875-9.171875c3.496094-3.492187 6.6875-4.414062 10.359375-5.636719 0 0 .003906 0 .003906-.003906zm19.855469.609375c-.550781 0-1 .449219-1 1s.449219 1 1 1 1-.449219 1-1-.449219-1-1-1zm3 4c-.550781 0-1 .449219-1 1s.449219 1 1 1 1-.449219 1-1-.449219-1-1-1zm-5 2c-.550781 0-1 .449219-1 1s.449219 1 1 1 1-.449219 1-1-.449219-1-1-1zm-19 1c-1.105469 0-2 .894531-2 2s.894531 2 2 2 2-.894531 2-2-.894531-2-2-2zm-7.695312.566406c-.261719.003907-.507813.109375-.695313.292969l-6.296875 6.300781c-.390625.390625-.390625 1.027344 0 1.417969l8.109375 8.109375c.390625.386719 1.027344.386719 1.417969 0l6.296875-6.300781c.390625-.390625.390625-1.023438 0-1.414063l-8.109375-8.113281c-.191406-.1875-.453125-.292969-.722656-.292969zm.011718 2.417969 6.699219 6.695313-4.886719 4.882812-6.695312-6.691406z" fill="#d59567"/></svg>