<svg viewBox="0 0 24 24" xmlns="http://www.w3.org/2000/svg"><path d="m12 2c-5.514 0-10 4.262-10 9.5 0 2.545 1.088 4.987484 3 6.771484v4.345704l4.0800781-2.039063c.9589999.279 1.9399219.421875 2.9199219.421875 5.514 0 10-4.262 10-9.5s-4.486-9.5-10-9.5zm0 2c4.411 0 8 3.365 8 7.5s-3.589 7.5-8 7.5c-.789 0-1.584328-.115797-2.3613281-.341797l-.7519531-.21875-.7011719.349609-1.1855469.59375v-1.111328-.86914l-.6367188-.591797c-1.5019999-1.402-2.3632812-3.338547-2.3632812-5.310547 0-4.135 3.589-7.5 8-7.5zm-1 5-5 5 4.5-2 2.5 2 5-5-4.5 2z" fill="#fff"/></svg>